<svg width="150" height="45" viewBox="0 0 150 45" xmlns="http://www.w3.org/2000/svg">
  <!-- Background -->
  <rect width="150" height="45" rx="6" fill="#2d5a27" opacity="0.05"/>
  
  <!-- Gardening Icons -->
  <!-- Leaf 1 -->
  <path d="M12 18c0-6 4-9 9-6 0 3-1 6-4 7-2 1-3 1-5-1z" fill="#4a7c59" opacity="0.8"/>
  <!-- Leaf 2 -->
  <path d="M19 22c1-5 6-7 7-2-1 2-3 4-6 4-1 0-1-1-1-2z" fill="#6b8e6b" opacity="0.9"/>
  <!-- Flower -->
  <circle cx="16" cy="15" r="2" fill="#e74c3c" opacity="0.7"/>
  <circle cx="17" cy="13" r="1.5" fill="#f39c12" opacity="0.8"/>
  <circle cx="15" cy="13" r="1.5" fill="#f39c12" opacity="0.8"/>
  <circle cx="16" cy="12" r="1.5" fill="#f39c12" opacity="0.8"/>
  <circle cx="16" cy="17" r="1.5" fill="#f39c12" opacity="0.8"/>
  
  <!-- Main Text -->
  <text x="32" y="20" font-family="serif" font-size="14" font-weight="bold" fill="#2d5a27">
    Flori si Frunze
  </text>
  
  <!-- Subtitle/tagline -->
  <text x="32" y="32" font-family="sans-serif" font-size="8" fill="#4a7c59" opacity="0.8">
    Grădinărit • Peisagistică
  </text>
  
  <!-- Small decorative elements -->
  <circle cx="135" cy="10" r="1.5" fill="#27ae60" opacity="0.6"/>
  <circle cx="140" cy="15" r="1" fill="#2ecc71" opacity="0.7"/>
</svg>