<svg width="240" height="70" viewBox="0 0 240 70" xmlns="http://www.w3.org/2000/svg">
  <!-- Background -->
  <rect width="240" height="70" rx="10" fill="#2d5a27" opacity="0.08"/>
  
  <!-- Enhanced Gardening Icons -->
  <!-- Larger Leaf 1 -->
  <path d="M15 30c0-10 8-15 15-10 0 5-3 10-8 12-3 2-5 2-7-2z" fill="#4a7c59"/>
  <!-- Larger Leaf 2 -->
  <path d="M28 35c3-9 10-11 12-4-3 4-6 6-10 6-1 0-2-1-2-2z" fill="#6b8e6b"/>
  <!-- Enhanced Flower -->
  <circle cx="22" cy="24" r="4" fill="#e74c3c"/>
  <circle cx="25" cy="21" r="3" fill="#f39c12"/>
  <circle cx="19" cy="21" r="3" fill="#f39c12"/>
  <circle cx="22" cy="18" r="3" fill="#f39c12"/>
  <circle cx="22" cy="27" r="3" fill="#f39c12"/>
  <!-- Decorative elements on right -->
  <circle cx="210" cy="18" r="3" fill="#27ae60"/>
  <circle cx="216" cy="25" r="2" fill="#2ecc71"/>
  <circle cx="204" cy="30" r="2" fill="#58d68d"/>
  
  <!-- Main Text - Larger and Bolder -->
  <text x="50" y="30" font-family="serif" font-size="22" font-weight="bold" fill="#2d5a27">
    Flori si Frunze
  </text>
  
  <!-- Subtitle/tagline - Larger -->
  <text x="50" y="48" font-family="sans-serif" font-size="12" fill="#4a7c59">
    Grădinărit • Peisagistică • Îngrijire
  </text>
  
  <!-- Enhanced decorative vine -->
  <path d="M45 58 Q60 54 75 58 Q90 54 105 58" stroke="#27ae60" stroke-width="2" fill="none"/>
  <circle cx="52" cy="57" r="1.5" fill="#27ae60"/>
  <circle cx="82" cy="57" r="1.5" fill="#27ae60"/>
</svg>