<svg width="200" height="60" viewBox="0 0 200 60" xmlns="http://www.w3.org/2000/svg">
  <!-- Background -->
  <rect width="200" height="60" rx="8" fill="#2d5a27" opacity="0.05"/>
  
  <!-- Gardening Icons -->
  <!-- Leaf 1 -->
  <path d="M15 25c0-8 6-12 12-8 0 4-2 8-6 10-2 1-4 1-6-2z" fill="#4a7c59" opacity="0.8"/>
  <!-- Leaf 2 -->
  <path d="M25 30c2-7 8-9 10-3-2 3-5 5-8 5-1 0-2-1-2-2z" fill="#6b8e6b" opacity="0.9"/>
  <!-- Flower -->
  <circle cx="20" cy="20" r="3" fill="#e74c3c" opacity="0.7"/>
  <circle cx="22" cy="18" r="2" fill="#f39c12" opacity="0.8"/>
  <circle cx="18" cy="18" r="2" fill="#f39c12" opacity="0.8"/>
  <circle cx="20" cy="16" r="2" fill="#f39c12" opacity="0.8"/>
  <circle cx="20" cy="22" r="2" fill="#f39c12" opacity="0.8"/>
  <!-- Small decorative elements -->
  <circle cx="180" cy="15" r="2" fill="#27ae60" opacity="0.6"/>
  <circle cx="185" cy="20" r="1.5" fill="#2ecc71" opacity="0.7"/>
  <circle cx="175" cy="25" r="1" fill="#58d68d" opacity="0.8"/>
  
  <!-- Main Text -->
  <text x="45" y="25" font-family="serif" font-size="18" font-weight="bold" fill="#2d5a27">
    Flori si Frunze
  </text>
  
  <!-- Subtitle/tagline -->
  <text x="45" y="42" font-family="sans-serif" font-size="10" fill="#4a7c59" opacity="0.8">
    Grădinărit • Peisagistică • Îngrijire
  </text>
  
  <!-- Decorative vine -->
  <path d="M40 48 Q50 45 60 48 Q70 45 80 48" stroke="#27ae60" stroke-width="1" fill="none" opacity="0.6"/>
  <circle cx="45" cy="47" r="1" fill="#27ae60" opacity="0.7"/>
  <circle cx="65" cy="47" r="1" fill="#27ae60" opacity="0.7"/>
</svg>