<svg width="180" height="55" viewBox="0 0 180 55" xmlns="http://www.w3.org/2000/svg">
  <!-- Background -->
  <rect width="180" height="55" rx="8" fill="#2d5a27" opacity="0.08"/>
  
  <!-- Enhanced Gardening Icons -->
  <!-- Larger Leaf 1 -->
  <path d="M12 22c0-8 6-12 12-8 0 4-2 8-6 10-3 2-4 2-6-2z" fill="#4a7c59"/>
  <!-- Larger Leaf 2 -->
  <path d="M22 28c2-7 8-9 10-3-2 3-5 5-8 5-1 0-2-1-2-2z" fill="#6b8e6b"/>
  <!-- Enhanced Flower -->
  <circle cx="18" cy="18" r="3" fill="#e74c3c"/>
  <circle cx="20" cy="16" r="2.5" fill="#f39c12"/>
  <circle cx="16" cy="16" r="2.5" fill="#f39c12"/>
  <circle cx="18" cy="14" r="2.5" fill="#f39c12"/>
  <circle cx="18" cy="21" r="2.5" fill="#f39c12"/>
  
  <!-- Main Text - Larger -->
  <text x="38" y="25" font-family="serif" font-size="16" font-weight="bold" fill="#2d5a27">
    Flori si Frunze
  </text>
  
  <!-- Subtitle/tagline - Larger -->
  <text x="38" y="38" font-family="sans-serif" font-size="10" fill="#4a7c59">
    Grădinărit • Peisagistică
  </text>
  
  <!-- Decorative elements -->
  <circle cx="160" cy="12" r="2" fill="#27ae60"/>
  <circle cx="165" cy="18" r="1.5" fill="#2ecc71"/>
  <circle cx="155" cy="24" r="1.5" fill="#58d68d"/>
</svg>